<?xml version="1.0" encoding="UTF-8"?>
<svg version="1.1" xmlns="http://www.w3.org/2000/svg" width="539" height="462">
<path d="M0 0 C4.63560755 4.76669157 8.582455 9.54210305 11.51953125 15.5625 C11.88175781 16.30242187 12.24398438 17.04234375 12.6171875 17.8046875 C15.56002222 24.40760699 16.18443338 30.35789577 16.51953125 37.5625 C9.91953125 37.5625 3.31953125 37.5625 -3.48046875 37.5625 C-4.68489583 34.33984375 -5.88932292 31.1171875 -7.09375 27.89453125 C-8.33868338 24.90318429 -9.80783731 22.32405865 -11.48046875 19.5625 C-11.48046875 18.9025 -11.48046875 18.2425 -11.48046875 17.5625 C-12.04507812 17.29308594 -12.6096875 17.02367187 -13.19140625 16.74609375 C-15.59800298 15.50172718 -17.82405476 14.08525358 -20.10546875 12.625 C-30.78318062 6.26810894 -41.67122043 4.89400652 -53.9453125 7.21875 C-65.01921836 10.27362058 -73.36477346 15.62226746 -80.48046875 24.5625 C-81.14046875 24.5625 -81.80046875 24.5625 -82.48046875 24.5625 C-82.48046875 25.2225 -82.48046875 25.8825 -82.48046875 26.5625 C-83.14046875 26.5625 -83.80046875 26.5625 -84.48046875 26.5625 C-84.57457031 27.26117188 -84.66867187 27.95984375 -84.765625 28.6796875 C-85.62356886 32.13959225 -87.08587852 34.62787245 -88.91796875 37.6875 C-92.2195832 43.29053615 -95.30263401 48.97523405 -98.29296875 54.75 C-102.13660373 62.14263591 -106.21368261 69.36455873 -110.42919922 76.55053711 C-113.94778917 82.57372678 -117.2684725 88.68213388 -120.48852539 94.86962891 C-123.82490806 101.28027844 -127.43793586 107.5068426 -131.1340332 113.71484375 C-134.76909038 119.83064255 -138.32187035 125.92248687 -141.3828125 132.3515625 C-142.95915681 135.52669018 -144.8010925 138.53788346 -146.66015625 141.5546875 C-147.68239978 144.05675025 -147.41956796 145.06320421 -146.48046875 147.5625 C-142.10595028 156.79759454 -136.9952842 165.66447084 -131.98046875 174.5625 C-130.83543743 176.59672458 -129.69084071 178.6311916 -128.546875 180.66601562 C-127.56731084 182.40806105 -126.58645261 184.14937865 -125.60546875 185.890625 C-125.06921875 186.85484375 -124.53296875 187.8190625 -123.98046875 188.8125 C-123.51640625 189.64265625 -123.05234375 190.4728125 -122.57421875 191.328125 C-121.54679029 193.42701457 -121.00563228 195.29906894 -120.48046875 197.5625 C-141.02027182 199.51795544 -141.02027182 199.51795544 -146.35546875 195.27734375 C-148.1275297 192.09829922 -149.32210611 189.00972352 -150.48046875 185.5625 C-151.52596339 183.56308689 -152.60789276 181.58217525 -153.73046875 179.625 C-154.189375 178.77035156 -154.64828125 177.91570312 -155.12109375 177.03515625 C-156.08268365 175.28605738 -157.09911683 173.56659222 -158.15234375 171.87109375 C-159.48046875 169.5625 -159.48046875 169.5625 -159.48046875 167.5625 C-160.14046875 167.5625 -160.80046875 167.5625 -161.48046875 167.5625 C-161.68671875 168.366875 -161.89296875 169.17125 -162.10546875 170 C-163.27216778 173.02281111 -164.34483154 174.96149091 -166.16796875 177.5625 C-169.58817961 182.49630051 -172.16628432 187.7429914 -174.76953125 193.1328125 C-176.54436231 196.69057887 -178.48371909 200.12726214 -180.48046875 203.5625 C-185.64779222 212.62304589 -190.69116522 221.73961061 -195.55859375 230.96484375 C-200.40316144 240.09166325 -205.57242809 249.04505466 -210.6640625 258.03515625 C-211.21191406 259.00324219 -211.75976562 259.97132813 -212.32421875 260.96875 C-213.12533081 262.38341553 -213.12533081 262.38341553 -213.94262695 263.82666016 C-215.37346857 266.37214534 -216.77841243 268.93035367 -218.1796875 271.4921875 C-226.46995801 286.42738237 -240.40110507 297.49961522 -256.75 302.578125 C-259.65158945 303.3079946 -262.54784512 303.97086766 -265.48046875 304.5625 C-266.2796875 304.74554688 -267.07890625 304.92859375 -267.90234375 305.1171875 C-285.41790027 308.14260181 -302.64654799 302.72008808 -317.48046875 293.5625 C-319.91145387 291.42604653 -321.6583256 289.21407748 -323.48046875 286.5625 C-324.34671875 285.716875 -325.21296875 284.87125 -326.10546875 284 C-335.12359317 274.74455652 -338.48046875 261.3301663 -338.48046875 248.64453125 C-337.57361718 235.24957787 -332.79781483 222.76707147 -322.94921875 213.4765625 C-313.62536013 206.24762148 -301.77197252 205.58891698 -290.453125 206.91796875 C-280.19702819 208.88471061 -273.47393381 215.24099479 -267.48046875 223.5625 C-262.52581751 234.12373027 -260.4804954 243.15678326 -264.27978516 254.3125 C-265.2837236 257.08854721 -266.36360555 259.83017396 -267.48046875 262.5625 C-273.48046875 259.5625 -279.48046875 256.5625 -285.48046875 253.5625 C-285.21169922 252.52802734 -285.21169922 252.52802734 -284.9375 251.47265625 C-283.35850329 244.49636169 -283.61738028 240.07568705 -286.48046875 233.5625 C-286.81046875 232.5725 -287.14046875 231.5825 -287.48046875 230.5625 C-290.4096104 229.39167122 -290.4096104 229.39167122 -293.48046875 228.5625 C-294.14046875 228.2325 -294.80046875 227.9025 -295.48046875 227.5625 C-300.37670041 227.07287683 -304.27176788 227.54629445 -308.546875 229.9296875 C-313.68464719 234.26825069 -315.9296052 240.50292664 -317.09375 246.96875 C-317.6390091 256.4626732 -314.7943019 263.8466574 -309.48046875 271.5625 C-302.46337181 279.16219724 -292.26289221 283.23258574 -282.02734375 283.73046875 C-267.00438019 283.80774737 -254.45753404 280.78565037 -243.35546875 269.875 C-242.36667955 268.79802149 -241.40919207 267.69168546 -240.48046875 266.5625 C-239.8359375 265.81742187 -239.19140625 265.07234375 -238.52734375 264.3046875 C-236.18999099 261.1733485 -234.523316 257.8869428 -232.85546875 254.375 C-228.79147534 246.0404349 -224.332433 237.962476 -219.78466797 229.88427734 C-217.56411761 225.93118226 -215.36736659 221.96488957 -213.16796875 218 C-212.38031712 216.58197082 -211.5925603 215.16400006 -210.8046875 213.74609375 C-210.42618652 213.06272949 -210.04768555 212.37936523 -209.65771484 211.67529297 C-208.83950563 210.20686026 -208.01374596 208.74261953 -207.18212891 207.28173828 C-206.75077637 206.51974121 -206.31942383 205.75774414 -205.875 204.97265625 C-205.48803955 204.29468994 -205.1010791 203.61672363 -204.70239258 202.91821289 C-201.20630723 196.1782074 -200.04872499 191.51356052 -200.15576172 183.94287109 C-200.15692993 183.00378403 -200.15809814 182.06469696 -200.15930176 181.09715271 C-200.16645788 178.00985197 -200.19464324 174.9231132 -200.22265625 171.8359375 C-200.23079786 169.68316135 -200.23745914 167.53037914 -200.2427063 165.37759399 C-200.25979421 159.72087038 -200.29403001 154.06438788 -200.33276367 148.40777588 C-200.39204419 139.34725789 -200.42584931 130.28661722 -200.45853043 121.22597122 C-200.47247971 118.06346156 -200.49407242 114.90107417 -200.51681519 111.73861694 C-200.52683935 109.8001921 -200.53670507 107.86176643 -200.54638672 105.92333984 C-200.55469513 105.0452919 -200.56300354 104.16724396 -200.57156372 103.2625885 C-200.57452454 102.44965836 -200.57748535 101.63672821 -200.58053589 100.79916382 C-200.58535414 100.09755316 -200.59017239 99.3959425 -200.59513664 98.67307091 C-200.48046875 96.5625 -200.48046875 96.5625 -199.48046875 91.5625 C-192.88046875 91.5625 -186.28046875 91.5625 -179.48046875 91.5625 C-179.15046875 112.3525 -178.82046875 133.1425 -178.48046875 154.5625 C-175.51046875 149.2825 -172.54046875 144.0025 -169.48046875 138.5625 C-168.59875 136.99628906 -167.71703125 135.43007812 -166.80859375 133.81640625 C-166.45410156 133.18669922 -166.09960938 132.55699219 -165.734375 131.90820312 C-165.04965459 130.69195851 -164.36475101 129.47581702 -163.6796875 128.25976562 C-159.03013959 119.99866851 -154.45180071 111.70013174 -149.91796875 103.375 C-148.86980255 101.45181698 -147.82162511 99.5286401 -146.7734375 97.60546875 C-146.23638184 96.61981934 -145.69932617 95.63416992 -145.14599609 94.61865234 C-142.34234443 89.4741036 -139.53628675 84.33086745 -136.73046875 79.1875 C-135.71483284 77.32552679 -134.69920681 75.46354818 -133.68359375 73.6015625 C-132.94921875 72.25520833 -132.21484375 70.90885417 -131.48046875 69.5625 C-130.82046875 69.5625 -130.16046875 69.5625 -129.48046875 69.5625 C-129.37114014 68.84360596 -129.26181152 68.12471191 -129.14916992 67.3840332 C-128.42757305 64.33931065 -127.32566229 62.13337732 -125.78125 59.41796875 C-125.24064941 58.45552246 -124.70004883 57.49307617 -124.14306641 56.50146484 C-123.59440918 55.53160645 -123.04575195 54.56174805 -122.48046875 53.5625 C-121.51196748 51.78975373 -120.54702544 50.01505755 -119.5859375 48.23828125 C-113.63571874 37.29736177 -107.62609063 26.39493452 -101.48046875 15.5625 C-100.82046875 15.5625 -100.16046875 15.5625 -99.48046875 15.5625 C-99.39667969 15.00175781 -99.31289063 14.44101563 -99.2265625 13.86328125 C-96.45998459 5.33179231 -86.75307462 -0.92107279 -79.48046875 -5.4375 C-78.42085938 -6.12972656 -78.42085938 -6.12972656 -77.33984375 -6.8359375 C-54.77483005 -20.6256681 -19.58142942 -18.29505814 0 0 Z " fill="#EFBF04" transform="translate(386.48046875,102.4375)"/>
<path d="M0 0 C1.16337891 -0.01160156 2.32675781 -0.02320313 3.52539062 -0.03515625 C14.10193142 0.0005552 22.46967807 2.46780458 31.8125 7.25 C32.48023438 7.57613281 33.14796875 7.90226563 33.8359375 8.23828125 C39.7565564 11.22180881 44.58002047 14.95085706 48.9375 20 C49.44023437 20.56976563 49.94296875 21.13953125 50.4609375 21.7265625 C51.5625 23.375 51.5625 23.375 51.5625 26.375 C52.2225 26.375 52.8825 26.375 53.5625 26.375 C60.59063394 38.97717119 63.06442819 53.68531712 59.578125 67.80859375 C57.75161702 74.23616232 55.66871152 80.0287126 51.5625 85.375 C50.9025 85.375 50.2425 85.375 49.5625 85.375 C49.35625 85.931875 49.15 86.48875 48.9375 87.0625 C45.06011188 93.58356183 38.49299918 96.13439488 31.5625 98.375 C20.76062364 100.92451119 11.15677608 99.01700233 1.4375 93.875 C-6.32718542 88.97163173 -11.44543546 80.93911287 -14.4375 72.375 C-14.86440668 69.2586861 -14.9126265 66.20462649 -14.875 63.0625 C-14.87016602 61.8098938 -14.87016602 61.8098938 -14.86523438 60.53198242 C-14.72244525 54.20802429 -13.63099358 48.92084376 -10.4375 43.375 C-5.93022353 43.97766785 -2.5787037 45.74099794 1.375 47.9375 C2.2712207 48.4315332 2.2712207 48.4315332 3.18554688 48.93554688 C4.64783998 49.74273267 6.1056399 50.55804917 7.5625 51.375 C7.40201172 52.89480469 7.40201172 52.89480469 7.23828125 54.4453125 C7.11627262 55.79679272 6.99523011 57.1483604 6.875 58.5 C6.80216797 59.16515625 6.72933594 59.8303125 6.65429688 60.515625 C6.2530099 65.33106871 6.96332301 68.31262836 9.5625 72.375 C10.2225 72.705 10.8825 73.035 11.5625 73.375 C11.5625 74.035 11.5625 74.695 11.5625 75.375 C19.08985642 77.8329123 25.03514358 77.8329123 32.5625 75.375 C32.5625 74.715 32.5625 74.055 32.5625 73.375 C33.02398437 72.92382812 33.48546875 72.47265625 33.9609375 72.0078125 C38.53430992 67.34520355 39.55155637 58.6785282 39.5625 52.375 C38.74602453 43.82427505 35.08180792 36.4196821 28.8125 30.5625 C18.62709257 22.29164284 6.36313548 20.28209622 -6.4375 21.375 C-18.06213716 23.69728847 -27.72732324 28.42010964 -35.0625 37.8359375 C-35.51625 38.34382813 -35.97 38.85171875 -36.4375 39.375 C-37.0975 39.375 -37.7575 39.375 -38.4375 39.375 C-38.71513184 40.10082275 -38.99276367 40.82664551 -39.27880859 41.57446289 C-40.37387249 44.22121341 -41.60224043 46.67253322 -42.9765625 49.18359375 C-43.71773315 50.54109741 -43.71773315 50.54109741 -44.47387695 51.92602539 C-44.99812256 52.87856201 -45.52236816 53.83109863 -46.0625 54.8125 C-46.60156982 55.79661865 -47.14063965 56.7807373 -47.69604492 57.79467773 C-51.27569236 64.31240321 -54.92970699 70.78107438 -58.64453125 77.22265625 C-61.03376165 81.42332931 -63.31643586 85.67412425 -65.53637695 89.96655273 C-67.4375 93.375 -67.4375 93.375 -69.49414062 96.16259766 C-77.50622396 107.61615028 -76.55787738 119.72378598 -76.4375 133.25 C-76.44560545 135.59506736 -76.45729507 137.9401252 -76.47265625 140.28515625 C-76.50226754 145.98250207 -76.48335799 151.67778226 -76.4375 157.375 C-83.0375 157.375 -89.6375 157.375 -96.4375 157.375 C-96.43113525 155.89290039 -96.42477051 154.41080078 -96.41821289 152.88378906 C-96.40368371 147.336998 -96.43530521 141.79123063 -96.48022461 136.24462891 C-96.49329063 133.85306295 -96.4941668 131.46139582 -96.48217773 129.06982422 C-96.11484096 110.44917722 -96.11484096 110.44917722 -104.4375 94.375 C-105.5084803 92.30658311 -106.55945087 90.22719877 -107.5625 88.125 C-109.56975852 84.02529428 -111.73936459 80.19129797 -114.22265625 76.3671875 C-116.09357413 73.29912282 -117.60402322 70.06638021 -119.1640625 66.83203125 C-120.7392641 63.79276191 -122.61059232 61.03130073 -124.6171875 58.26171875 C-125.7375427 55.6849018 -125.17622617 54.02438211 -124.4375 51.375 C-110.26402158 49.75127586 -110.26402158 49.75127586 -103.4375 51.375 C-99.12493036 55.03818657 -97.38808351 59.13797882 -95.4375 64.375 C-94.7141901 65.98181595 -93.98593232 67.58642588 -93.25 69.1875 C-92.81880859 70.23164063 -92.81880859 70.23164063 -92.37890625 71.296875 C-90.75955182 74.87154952 -88.60625455 78.11297983 -86.4375 81.375 C-83.09497832 79.70373916 -82.1234024 76.00526486 -80.5625 72.75 C-77.25616081 65.92360387 -73.70553102 59.37816738 -69.6875 52.9375 C-67.83707748 49.90114584 -66.16005606 46.85325719 -64.66015625 43.6328125 C-56.43131869 25.98979038 -44.12260773 11.49376204 -25.484375 4.41015625 C-24.47890625 4.06855469 -23.4734375 3.72695312 -22.4375 3.375 C-21.81415771 3.11750977 -21.19081543 2.86001953 -20.54858398 2.59472656 C-13.73385178 -0.04464491 -7.24257273 -0.07198581 0 0 Z " fill="#EFBF04" transform="translate(395.4375,142.625)"/>
<path d="M0 0 C2.25256041 1.0991772 4.50198174 2.20410211 6.75 3.3125 C7.38421875 3.62123047 8.0184375 3.92996094 8.671875 4.24804688 C12.03147912 5.910351 15.09858921 7.61879165 18 10 C17.67 10.928125 17.34 11.85625 17 12.8125 C15.97788889 16.21953702 16.01186984 19.14641615 16.1875 22.6875 C16.234375 25.56640625 16.234375 25.56640625 16 28 C13.9375 30.125 13.9375 30.125 11 32 C9.12829548 34.33451111 7.3851802 36.73572008 5.6484375 39.171875 C5.10445313 39.77515625 4.56046875 40.3784375 4 41 C3.01 41 2.02 41 1 41 C-5.20883634 29.22216923 -7.49296746 20.56952655 -3.94921875 7.61328125 C-2.93534226 4.82199166 -1.60344108 2.49274453 0 0 Z " fill="#EFBF04" transform="translate(333,130)"/>
<path d="M0 0 C-1.07046684 6.2281707 -6.1598312 10.55135648 -10.9375 14.3125 C-19.56103517 19.06424387 -26.21061224 19.37122678 -36 19 C-35.0793849 13.47630938 -31.20326866 10.39394364 -27 7 C-18.04857595 1.60072835 -10.41533905 -1.82725246 0 0 Z " fill="#EFBF04" transform="translate(396,167)"/>
<path d="" fill="#EFBF04" transform="translate(0,0)"/>
<path d="" fill="#EFBF04" transform="translate(0,0)"/>
<path d="" fill="#EFBF04" transform="translate(0,0)"/>
<path d="" fill="#EFBF04" transform="translate(0,0)"/>
<path d="" fill="#EFBF04" transform="translate(0,0)"/>
<path d="" fill="#EFBF04" transform="translate(0,0)"/>
<path d="" fill="#EFBF04" transform="translate(0,0)"/>
<path d="" fill="#EFBF04" transform="translate(0,0)"/>
<path d="" fill="#EFBF04" transform="translate(0,0)"/>
<path d="" fill="#EFBF04" transform="translate(0,0)"/>
<path d="" fill="#EFBF04" transform="translate(0,0)"/>
<path d="" fill="#EFBF04" transform="translate(0,0)"/>
<path d="" fill="#EFBF04" transform="translate(0,0)"/>
<path d="" fill="#EFBF04" transform="translate(0,0)"/>
<path d="" fill="#EFBF04" transform="translate(0,0)"/>
<path d="" fill="#EFBF04" transform="translate(0,0)"/>
<path d="" fill="#EFBF04" transform="translate(0,0)"/>
<path d="" fill="#EFBF04" transform="translate(0,0)"/>
<path d="" fill="#EFBF04" transform="translate(0,0)"/>
<path d="" fill="#EFBF04" transform="translate(0,0)"/>
<path d="" fill="#EFBF04" transform="translate(0,0)"/>
<path d="" fill="#EFBF04" transform="translate(0,0)"/>
<path d="" fill="#EFBF04" transform="translate(0,0)"/>
<path d="" fill="#EFBF04" transform="translate(0,0)"/>
<path d="" fill="#EFBF04" transform="translate(0,0)"/>
<path d="" fill="#EFBF04" transform="translate(0,0)"/>
<path d="" fill="#EFBF04" transform="translate(0,0)"/>
<path d="" fill="#EFBF04" transform="translate(0,0)"/>
<path d="" fill="#EFBF04" transform="translate(0,0)"/>
<path d="" fill="#EFBF04" transform="translate(0,0)"/>
<path d="" fill="#EFBF04" transform="translate(0,0)"/>
<path d="" fill="#EFBF04" transform="translate(0,0)"/>
<path d="" fill="#EFBF04" transform="translate(0,0)"/>
<path d="" fill="#EFBF04" transform="translate(0,0)"/>
<path d="" fill="#EFBF04" transform="translate(0,0)"/>
<path d="" fill="#EFBF04" transform="translate(0,0)"/>
<path d="" fill="#EFBF04" transform="translate(0,0)"/>
<path d="" fill="#EFBF04" transform="translate(0,0)"/>
<path d="" fill="#EFBF04" transform="translate(0,0)"/>
<path d="" fill="#EFBF04" transform="translate(0,0)"/>
<path d="" fill="#EFBF04" transform="translate(0,0)"/>
<path d="" fill="#EFBF04" transform="translate(0,0)"/>
<path d="" fill="#EFBF04" transform="translate(0,0)"/>
<path d="" fill="#EFBF04" transform="translate(0,0)"/>
<path d="" fill="#EFBF04" transform="translate(0,0)"/>
<path d="" fill="#EFBF04" transform="translate(0,0)"/>
<path d="" fill="#EFBF04" transform="translate(0,0)"/>
<path d="" fill="#EFBF04" transform="translate(0,0)"/>
<path d="" fill="#EFBF04" transform="translate(0,0)"/>
<path d="" fill="#EFBF04" transform="translate(0,0)"/>
<path d="" fill="#EFBF04" transform="translate(0,0)"/>
<path d="" fill="#EFBF04" transform="translate(0,0)"/>
<path d="" fill="#EFBF04" transform="translate(0,0)"/>
<path d="" fill="#EFBF04" transform="translate(0,0)"/>
<path d="" fill="#EFBF04" transform="translate(0,0)"/>
<path d="" fill="#EFBF04" transform="translate(0,0)"/>
<path d="" fill="#EFBF04" transform="translate(0,0)"/>
<path d="" fill="#EFBF04" transform="translate(0,0)"/>
<path d="" fill="#EFBF04" transform="translate(0,0)"/>
<path d="" fill="#EFBF04" transform="translate(0,0)"/>
<path d="" fill="#EFBF04" transform="translate(0,0)"/>
<path d="" fill="#EFBF04" transform="translate(0,0)"/>
<path d="" fill="#EFBF04" transform="translate(0,0)"/>
<path d="" fill="#EFBF04" transform="translate(0,0)"/>
<path d="" fill="#EFBF04" transform="translate(0,0)"/>
<path d="" fill="#EFBF04" transform="translate(0,0)"/>
<path d="" fill="#EFBF04" transform="translate(0,0)"/>
<path d="" fill="#EFBF04" transform="translate(0,0)"/>
<path d="" fill="#EFBF04" transform="translate(0,0)"/>
<path d="" fill="#EFBF04" transform="translate(0,0)"/>
<path d="" fill="#EFBF04" transform="translate(0,0)"/>
<path d="" fill="#EFBF04" transform="translate(0,0)"/>
<path d="" fill="#EFBF04" transform="translate(0,0)"/>
<path d="" fill="#EFBF04" transform="translate(0,0)"/>
</svg>
